<svg width="28" height="28" viewBox="0 0 28 28" fill="none" xmlns="http://www.w3.org/2000/svg">
<path d="M8.28335 9.33334H19.7167C19.8334 9.33334 19.8334 9.33334 19.8334 9.21668C19.7167 8.63334 19.6 8.16668 19.3667 7.70001C18.9 6.65001 18.0834 5.95001 17.15 5.36668L16.6834 5.13334C16.6834 5.13334 16.6834 5.01668 16.8 5.01668C17.15 4.55001 17.5 4.08334 17.85 3.50001C17.9667 3.38334 17.9667 3.26668 17.85 3.15001C17.7334 3.03334 17.6167 3.15001 17.5 3.26668L16.45 4.78334C16.45 4.78334 16.3334 4.90001 16.3334 4.78334C15.4 4.43334 14.4667 4.31668 13.5334 4.31668C12.8334 4.31668 12.25 4.55001 11.6667 4.78334H11.55L10.5 3.38334C10.5 3.38334 10.5 3.26668 10.3834 3.26668C10.2667 3.15001 10.15 3.15001 10.15 3.26668C10.0334 3.26668 10.0334 3.38334 10.15 3.50001C10.15 3.50001 10.15 3.61668 10.2667 3.61668C10.5 4.08334 10.85 4.55001 11.2 5.01668L11.3167 5.13334H11.2C10.5 5.48334 9.91669 5.95001 9.45002 6.53334C8.75002 7.23334 8.28335 8.16668 8.16669 9.21668C8.16669 9.33334 8.16669 9.33334 8.28335 9.33334ZM16.5667 6.06668C17.0334 6.06668 17.5 6.41668 17.5 7.00001C17.5 7.46668 17.15 7.93334 16.6834 7.93334C16.2167 7.93334 15.75 7.58334 15.75 7.00001C15.6334 6.53334 16.1 6.06668 16.5667 6.06668ZM11.55 6.06668C12.0167 6.06668 12.4834 6.41668 12.4834 7.00001C12.4834 7.46668 12.1334 7.93334 11.6667 7.93334C11.0834 7.93334 10.6167 7.46668 10.6167 7.00001C10.6167 6.53334 11.0834 6.06668 11.55 6.06668ZM5.83335 10.5C5.25002 10.5 4.66669 11.0833 4.66669 11.6667V17.5C4.66669 18.0833 5.25002 18.6667 5.83335 18.6667C6.41669 18.6667 7.00002 18.0833 7.00002 17.5V11.6667C7.00002 11.0833 6.41669 10.5 5.83335 10.5ZM22.1667 10.5C21.5834 10.5 21 11.0833 21 11.6667V17.5C21 18.0833 21.5834 18.6667 22.1667 18.6667C22.75 18.6667 23.3334 18.0833 23.3334 17.5V11.6667C23.3334 11.0833 22.75 10.5 22.1667 10.5ZM8.16669 19.8333C8.16669 20.4167 8.75002 21 9.33335 21H10.5V24.5C10.5 25.0833 11.0834 25.6667 11.6667 25.6667C12.25 25.6667 12.8334 25.0833 12.8334 24.5V21H15.1667V24.5C15.1667 25.0833 15.75 25.6667 16.3334 25.6667C16.9167 25.6667 17.5 25.0833 17.5 24.5V21H18.6667C19.25 21 19.8334 20.4167 19.8334 19.8333V10.5H8.16669V19.8333Z" fill="white"/>
</svg>
